<svg width="670" height="670" viewBox="0 0 670 670" fill="none" xmlns="http://www.w3.org/2000/svg">
<g clip-path="url(#clip0_2_4)">
<path d="M405.541 246.81C397.974 254.196 389.648 259.983 380.562 264.173C371.477 268.362 361.766 270.083 351.432 269.335C341.097 268.587 332.175 264.366 324.667 256.674C315.311 247.089 310.443 234.848 310.063 219.951C309.682 205.054 312.564 190.913 318.708 177.529C324.851 164.144 332.526 152.958 341.732 143.972C349.299 136.586 357.625 130.799 366.711 126.609C375.797 122.42 385.507 120.699 395.842 121.447C406.177 122.195 415.098 126.416 422.607 134.108C432.086 143.819 436.984 156.091 437.303 170.925C437.622 185.759 434.741 199.838 428.661 213.161C422.58 226.485 414.873 237.701 405.541 246.81ZM251.025 271.298C240.936 281.146 229.586 287.053 216.975 289.019C204.365 290.985 193.32 287.112 183.842 277.402C174.486 267.817 169.277 255.479 168.213 240.387C167.15 225.295 169.382 210.741 174.91 196.725C180.439 182.71 187.869 171.148 197.201 162.038C207.29 152.191 218.671 146.253 231.345 144.226C244.019 142.198 255.095 146.039 264.573 155.75C273.929 165.335 279.138 177.673 280.202 192.765C281.265 207.857 279.002 222.442 273.41 236.519C267.819 250.596 260.357 262.189 251.025 271.298ZM328.882 340.845C343.408 355.726 352.955 377.806 357.523 407.085C362.091 436.365 361.242 465.391 354.974 494.166C348.706 522.94 338.321 544.405 323.818 558.561C318.017 564.224 312.147 567.86 306.208 569.471C300.269 571.081 294.446 570.793 288.74 568.605C283.034 566.417 277.803 563.581 273.047 560.097C268.291 556.612 263.267 552.158 257.974 546.735C249.603 538.16 240.9 523.567 231.865 502.957C222.83 482.348 214.435 468.07 206.68 460.125C198.556 451.802 183.902 442.403 162.718 431.927C141.534 421.452 126.388 411.548 117.279 402.216C94.752 379.137 92.6948 358.612 111.107 340.64C121.953 330.054 137.475 321.798 157.673 315.874C177.871 309.949 198.595 306.898 219.846 306.719C241.096 306.54 261.842 309.377 282.085 315.229C302.328 321.082 317.927 329.621 328.882 340.845ZM412.927 347.096C405.418 339.403 401.415 330.382 400.917 320.032C400.419 309.682 402.374 300.017 406.782 291.035C411.19 282.053 417.178 273.869 424.744 266.483C434.077 257.374 445.476 249.941 458.942 244.185C472.409 238.428 486.553 235.889 501.375 236.566C516.197 237.244 528.347 242.438 537.826 252.149C545.334 259.842 549.338 268.863 549.836 279.213C550.334 289.563 548.379 299.228 543.97 308.21C539.562 317.192 533.575 325.376 526.008 332.761C516.802 341.747 505.434 349.15 491.904 354.968C478.375 360.786 464.168 363.325 449.285 362.584C434.402 361.843 422.282 356.68 412.927 347.096ZM512.367 409.613C521.845 419.324 525.418 430.489 523.084 443.11C520.751 455.731 514.539 466.966 504.45 476.813C495.118 485.923 483.379 493.071 469.234 498.259C455.089 503.446 440.486 505.326 425.424 503.897C410.362 502.469 398.153 496.962 388.798 487.378C379.319 477.667 375.715 466.532 377.986 453.973C380.256 441.413 386.436 430.21 396.525 420.362C405.857 411.253 417.627 404.074 431.835 398.825C446.044 393.576 460.679 391.665 475.741 393.094C490.803 394.522 503.011 400.029 512.367 409.613Z" fill="#EDF3F4"/>
</g>
<defs>
<clipPath id="clip0_2_4">
<rect width="473.706" height="473.706" fill="white" transform="translate(338.988) rotate(45.6932)"/>
</clipPath>
</defs>
</svg>
