<svg width="24" height="24" viewBox="0 0 24 24" fill="none" xmlns="http://www.w3.org/2000/svg">
<path d="M12 11.0769C15.3137 11.0769 18 8.59727 18 5.53846C18 2.47965 15.3137 0 12 0C8.68629 0 6 2.47965 6 5.53846C6 8.59727 8.68629 11.0769 12 11.0769Z" fill="white"/>
<path d="M24 20.7691V22.1537C24 22.521 23.842 22.8731 23.5607 23.1328C23.2794 23.3925 22.8978 23.5383 22.5 23.5383H1.5C1.10218 23.5383 0.720645 23.3925 0.43934 23.1328C0.158036 22.8731 0 22.521 0 22.1537V20.7691C0 18.5658 0.948212 16.4527 2.63604 14.8947C4.32387 13.3367 6.61305 12.4614 9 12.4614H15C17.3869 12.4614 19.6761 13.3367 21.364 14.8947C23.0518 16.4527 24 18.5658 24 20.7691Z" fill="white"/>
</svg>
